<svg width="49" height="73" viewBox="0 0 49 73" fill="none" xmlns="http://www.w3.org/2000/svg">
<path fill-rule="evenodd" clip-rule="evenodd" d="M19.0985 25.5895C19.0985 13.6002 20.5713 6.89832 24.3849 0C28.1985 6.89832 29.8001 13.6675 29.8001 25.5895V32.6898L35.1537 36.7817C36.5593 37.8482 37.0913 38.8585 37.0913 40.8006V42.3329C38.8013 40.7337 40.3678 38.9869 41.7729 37.1129C44.4496 33.4308 45.592 30.2145 44.5728 28.3398C44.1753 27.4698 43.1673 26.931 41.8289 26.6559C39.6401 26.3442 37.411 26.4817 35.2769 27.0601C35.0429 27.1286 34.7973 27.1485 34.5554 27.1184C34.3135 27.0882 34.0802 27.0088 33.8701 26.885C33.6599 26.7611 33.4773 26.5955 33.3334 26.3982C33.1895 26.2009 33.0875 25.9762 33.0335 25.7379C32.9795 25.4996 32.9748 25.2528 33.0195 25.0126C33.0643 24.7724 33.1577 24.5439 33.2939 24.3412C33.43 24.1386 33.6062 23.966 33.8114 23.8341C34.0167 23.7022 34.2467 23.6138 34.4873 23.5744C37.6345 22.9065 40.3785 22.7718 42.5177 23.1759C44.9928 23.6418 46.796 24.8598 47.804 26.7233C49.5456 30.0069 48.2072 34.5814 44.724 39.3187C41.112 44.3704 35.0249 49.568 28.3329 53.5869C31.6929 55.0631 35.0529 56.1352 37.8529 56.3934C41.0616 56.7245 43.4025 56.2586 44.2761 54.8498C44.3026 54.8202 44.3235 54.7859 44.3377 54.7488C44.3541 54.7114 44.3768 54.6773 44.4048 54.6477C44.7822 53.88 44.8774 53.0035 44.6736 52.1724C44.39 50.7238 43.8454 49.3391 43.0664 48.0862C42.8266 47.6679 42.7623 47.1712 42.8878 46.7054C43.0133 46.2396 43.3183 45.8429 43.7356 45.6025C44.153 45.362 44.6485 45.2976 45.1132 45.4234C45.578 45.5492 45.9738 45.8549 46.2136 46.2732C47.2313 47.8962 47.9325 49.698 48.28 51.5831C48.6435 53.191 48.4314 54.8758 47.6808 56.3428C47.6472 56.4102 47.5968 56.4888 47.5464 56.573C47.496 56.6572 47.4456 56.7414 47.412 56.8087C45.6704 59.4917 42.1256 60.4964 37.5785 60.0249C36.1786 59.8807 34.7915 59.6311 33.4289 59.2784V64.0438C33.4296 64.2814 33.3835 64.5167 33.2931 64.7363C33.2028 64.956 33.07 65.1555 32.9024 65.3235C32.7348 65.4914 32.5357 65.6245 32.3166 65.7151C32.0975 65.8057 31.8627 65.8519 31.6257 65.8512C31.1467 65.8469 30.6882 65.6558 30.3473 65.3184C30.0065 64.981 29.8102 64.5238 29.8001 64.0438V58.1502C28.6017 57.7124 27.3921 57.2185 26.1881 56.6684V70.3415C26.1624 70.8042 25.9609 71.2394 25.625 71.5579C25.2891 71.8763 24.8444 72.0537 24.3821 72.0537C23.9198 72.0537 23.475 71.8763 23.1391 71.5579C22.8033 71.2394 22.6018 70.8042 22.5761 70.3415V56.5505C21.3721 57.1118 20.1625 57.6114 18.9585 58.0548V64.0438C18.9328 64.5065 18.7313 64.9417 18.3954 65.2601C18.0596 65.5785 17.6148 65.756 17.1525 65.756C16.6902 65.756 16.2454 65.5785 15.9096 65.2601C15.5737 64.9417 15.3722 64.5065 15.3465 64.0438V59.1886C13.8977 59.5742 12.4229 59.8537 10.9337 60.0249C6.3809 60.4964 2.83611 59.4636 1.09452 56.8087C1.06092 56.7414 1.01051 56.6572 0.960115 56.573C0.909715 56.4888 0.864915 56.4102 0.831315 56.3428C0.0779229 54.8767 -0.134305 53.1908 0.232117 51.5831C0.64611 49.7221 1.34505 47.9366 2.30411 46.29C2.54398 45.8717 2.9398 45.5661 3.40451 45.4403C3.86923 45.3145 4.36477 45.3789 4.78211 45.6193C5.19945 45.8597 5.50442 46.2564 5.62992 46.7222C5.75542 47.188 5.69117 47.6847 5.45131 48.103C4.68425 49.3659 4.14053 50.7521 3.84411 52.2005C3.67942 53.0337 3.77322 53.8976 4.11291 54.6758C4.14095 54.7053 4.16369 54.7395 4.18011 54.7768C4.19653 54.8141 4.21926 54.8483 4.24731 54.8779C5.18251 56.2867 7.5233 56.7526 10.6705 56.4832C14.0721 56.0082 17.3854 55.0343 20.5041 53.5925C13.8121 49.5736 7.7249 44.3423 4.04011 39.3917C0.562516 34.6375 -0.708682 30.0125 0.960115 26.7962C1.96811 24.9215 3.76011 23.7147 6.24651 23.2489C8.4865 22.7774 11.1297 22.9121 14.2769 23.6474C14.515 23.6903 14.7418 23.7812 14.9438 23.9146C15.1458 24.048 15.3186 24.2211 15.4518 24.4235C15.585 24.6258 15.6758 24.8532 15.7188 25.0918C15.7617 25.3304 15.7559 25.5752 15.7016 25.8114C15.6473 26.0477 15.5458 26.2704 15.403 26.4662C15.2603 26.6619 15.0794 26.8265 14.8713 26.9501C14.6632 27.0737 14.4323 27.1536 14.1924 27.1851C13.9526 27.2165 13.7089 27.1988 13.4761 27.133C11.3064 26.6022 9.06281 26.4428 6.84011 26.6615C5.50171 26.931 4.56651 27.4698 4.09611 28.3454C3.09371 30.2875 4.23051 33.4364 6.8961 37.1185C8.35662 39.0652 9.99111 40.8744 11.7793 42.5237V40.7332C11.7793 38.8585 12.2497 37.7864 13.7169 36.7143L19.0705 32.6281L19.0985 25.5895ZM15.4193 45.6333C16.5785 46.5538 17.7881 47.4463 19.0313 48.2995V37.2476L16.0913 39.4591C15.8758 39.608 15.7012 39.809 15.5838 40.0435C15.4663 40.278 15.4097 40.5384 15.4193 40.8006V45.6333ZM22.6433 50.6008C23.2033 50.9376 23.8025 51.2687 24.3849 51.5831C25.0121 51.2351 25.6393 50.8758 26.2609 50.5054V25.5895C26.2609 19.6959 25.9249 14.4702 24.4521 9.31189C22.9793 14.4702 22.6433 19.6959 22.6433 25.5895V50.6008ZM29.8729 48.1704C31.1217 47.306 32.3313 46.4023 33.4849 45.4762V40.8679C33.5016 40.6053 33.4488 40.3429 33.3317 40.1073C33.2147 39.8717 33.0376 39.6713 32.8185 39.5264L29.8729 37.3149V48.1704Z" fill="#27AE60"/>
</svg>
