<svg width="26" height="26" viewBox="0 0 26 26" fill="none" xmlns="http://www.w3.org/2000/svg">
<path fill-rule="evenodd" clip-rule="evenodd" d="M11.8615 15.397C12.252 15.0065 12.8852 15.0065 13.2757 15.397L22.7226 24.8439C23.1131 25.2344 23.7463 25.2344 24.1368 24.8439L24.8439 24.1368C25.2344 23.7463 25.2344 23.1131 24.8439 22.7226L15.397 13.2757C15.0065 12.8851 15.0065 12.252 15.397 11.8615L24.8441 2.41437C25.2346 2.02385 25.2346 1.39068 24.8441 1.00016L24.137 0.29305C23.7465 -0.0974752 23.1133 -0.0974752 22.7228 0.293049L13.2757 9.7401C12.8852 10.1307 12.252 10.1307 11.8615 9.7401L2.41421 0.292894C2.02368 -0.0976312 1.39052 -0.0976312 1 0.292894L0.292894 0.999997C-0.0976312 1.39053 -0.0976312 2.02369 0.292894 2.41422L9.74018 11.8615C10.1307 12.252 10.1307 12.8851 9.74018 13.2757L0.293083 22.7227C-0.0974412 23.1132 -0.0974412 23.7464 0.293083 24.1369L1.00018 24.844C1.39071 25.2346 2.02387 25.2346 2.4144 24.844L11.8615 15.397Z" fill="#27AE60"/>
</svg>
