<svg width="119" height="142" viewBox="0 0 119 142" fill="none" xmlns="http://www.w3.org/2000/svg">
<path d="M117.16 54.1358L91.1874 31.665L117.16 9.14987C117.963 8.45388 118.535 7.52815 118.797 6.49715C119.06 5.46616 119.001 4.37935 118.628 3.38289C118.256 2.38643 117.588 1.5281 116.714 0.923324C115.84 0.318552 114.803 -0.00365563 113.741 3.12911e-05H30.9686C29.5925 0.0093922 28.2758 0.563028 27.3053 1.54039C26.3347 2.51775 25.7888 3.83969 25.7865 5.21837V104.083H20.4715C15.0458 104.09 9.84424 106.252 6.00686 110.094C2.16948 113.937 0.00937437 119.148 0 124.583V136.786C0.0045208 138.157 0.546541 139.472 1.50925 140.446C2.47196 141.42 3.77828 141.977 5.14667 141.996H57.4107C58.1121 142.025 58.8123 141.911 59.4689 141.662C60.1256 141.413 60.7252 141.034 61.2318 140.547C61.7384 140.06 62.1414 139.475 62.4168 138.828C62.6922 138.181 62.8341 137.485 62.8341 136.782C62.8341 136.078 62.6922 135.382 62.4168 134.735C62.1414 134.088 61.7384 133.503 61.2318 133.016C60.7252 132.529 60.1256 132.15 59.4689 131.901C58.8123 131.652 58.1121 131.539 57.4107 131.568H10.3465V124.583C10.3465 121.908 11.4061 119.342 13.2928 117.448C15.1795 115.555 17.739 114.489 20.4095 114.484H41.5189C43.3149 114.492 45.0769 114.976 46.6252 115.888C48.1735 116.8 49.4528 118.107 50.3329 119.676C51.0414 120.81 52.1572 121.629 53.4503 121.964C54.7435 122.298 56.1156 122.124 57.2839 121.475C58.4523 120.827 59.3279 119.754 59.7305 118.478C60.1332 117.202 60.0321 115.82 59.4481 114.617C57.6743 111.417 55.0795 108.75 51.932 106.892C48.7846 105.034 45.1988 104.052 41.5454 104.047H36.2305V10.4278H99.8153L79.8222 27.7247C79.2594 28.2135 78.8095 28.8192 78.5036 29.4995C78.1976 30.1799 78.0431 30.9188 78.0505 31.665C78.0501 32.4088 78.208 33.1442 78.5135 33.8221C78.8189 34.5 79.2651 35.1049 79.8222 35.5965L99.7799 52.8934H53.2473C52.5458 52.8644 51.8456 52.9777 51.189 53.2267C50.5323 53.4757 49.9327 53.855 49.4261 54.342C48.9195 54.8291 48.5165 55.4137 48.2411 56.0607C47.9658 56.7077 47.8238 57.4039 47.8238 58.1073C47.8238 58.8107 47.9658 59.5068 48.2411 60.1538C48.5165 60.8009 48.9195 61.3855 49.4261 61.8725C49.9327 62.3595 50.5323 62.7389 51.189 62.9878C51.8456 63.2368 52.5458 63.3502 53.2473 63.3212H113.758C114.827 63.3298 115.872 63.0083 116.752 62.4004C117.632 61.7925 118.304 60.9278 118.675 59.924C119.047 58.9201 119.101 57.8259 118.83 56.7902C118.559 55.7545 117.976 54.8276 117.16 54.1358Z" fill="#B0D3BF"/>
</svg>
