<svg width="10" height="15" viewBox="0 0 10 15" fill="none" xmlns="http://www.w3.org/2000/svg">
<path fill-rule="evenodd" clip-rule="evenodd" d="M8.40461 0.254057C8.06589 -0.0846852 7.51664 -0.084686 7.1779 0.254056L0.0109072 7.42104C-0.00362533 7.43557 -0.00362533 7.45913 0.0109072 7.47367C0.0254397 7.4882 0.0254362 7.51177 0.0109037 7.5263C-0.00363226 7.54083 -0.00363573 7.56441 0.0109002 7.57894L7.17788 14.746C7.51662 15.0847 8.0658 15.0847 8.40461 14.746L9.01795 14.1325C9.35667 13.7938 9.35667 13.2447 9.01795 12.9058L4.22539 8.11335C3.88665 7.7746 3.88665 7.22539 4.22539 6.88664L9.01795 2.0941C9.35667 1.75536 9.35667 1.20615 9.01795 0.867409L8.40461 0.254057Z" fill="#223522"/>
</svg>
