<svg width="32" height="31" viewBox="0 0 32 31" fill="none" xmlns="http://www.w3.org/2000/svg">
<path d="M27.1317 10.0265H20.9573V5.60014C20.9573 3.41667 20.3043 1.83349 19.0113 0.883583C16.9796 -0.60724 14.2222 0.230525 14.1035 0.270104L13.2723 0.533963V6.83369C13.2723 8.3575 12.4411 9.70978 10.7986 10.8642C10.2643 11.2402 10.1323 11.979 10.5083 12.52C10.8844 13.0543 11.6232 13.1862 12.1641 12.8102C14.4465 11.2072 15.6537 9.1425 15.6537 6.83369V2.38101C16.2474 2.32823 17.0324 2.36781 17.6129 2.78999C18.2593 3.26495 18.5892 4.20826 18.5892 5.58694V12.388H27.1383C28.4906 12.388 29.5922 13.4633 29.6318 14.809L27.8573 25.9506L27.8508 25.9902C27.7716 26.6103 27.5407 28.5035 24.6514 28.5035H11.3461C10.04 28.5035 8.97794 27.4414 8.97794 26.1353V15.119C8.97794 13.1071 7.34199 11.4645 5.32344 11.4645H3.6545C1.64255 11.4645 0 13.1005 0 15.119V26.419C0 28.4309 1.63595 30.0735 3.6545 30.0735C4.30757 30.0735 4.84189 29.5391 4.84189 28.8861C4.84189 28.233 4.30757 27.6987 3.6545 27.6987C2.94867 27.6987 2.37477 27.1248 2.37477 26.419V15.119C2.37477 14.4132 2.94867 13.8393 3.6545 13.8393H5.32344C6.02927 13.8393 6.60317 14.4132 6.60317 15.119V26.419C6.60317 26.5113 6.61637 26.6103 6.63616 26.696C6.91321 29.051 8.91857 30.8848 11.3461 30.8848H24.6382C25.9839 30.8848 27.1845 30.5616 28.0948 29.9481C29.269 29.1631 29.9946 27.9032 30.1925 26.3068L31.9802 15.0992C31.9934 15.0333 32 14.9607 32 14.8947C32 12.2099 29.8165 10.0265 27.1317 10.0265Z" fill="white"/>
</svg>
