<svg width="115" height="142" viewBox="0 0 115 142" fill="none" xmlns="http://www.w3.org/2000/svg">
<path d="M97.4606 16.2281C89.6882 8.68262 79.9525 3.48991 69.3715 1.24638C58.7906 -0.997158 47.7935 -0.200539 37.6435 3.54474C27.4934 7.29002 18.6019 13.8321 11.9902 22.4195C5.37859 31.0069 1.3149 41.2915 0.265911 52.092C-0.25902 57.5878 -0.00590871 63.1305 1.01771 68.5551C1.11647 69.2073 1.25231 69.8532 1.42457 70.4898C2.30664 74.3951 3.58703 78.1988 5.24549 81.841C11.0919 95.6416 23.8194 116.897 51.3 139.768C53.0429 141.211 55.2319 142 57.4913 142C59.7507 142 61.9397 141.211 63.6826 139.768C91.172 116.871 103.891 95.6416 109.737 81.841C111.407 78.2035 112.688 74.3985 113.558 70.4898C113.73 69.8532 113.866 69.2073 113.965 68.5551C114.642 64.9797 114.988 61.3492 115 57.7098C115.026 49.9645 113.484 42.2944 110.47 35.1641C107.455 28.0339 103.029 21.5918 97.4606 16.2281ZM103.793 66.7091C103.793 66.7978 103.793 66.8511 103.793 66.9398C103.793 67.0286 103.678 67.4901 103.537 68.1202V68.1823C102.817 71.4134 101.755 74.5581 100.371 77.5632C100.347 77.6081 100.329 77.6558 100.317 77.7052C94.931 90.3876 83.1587 109.966 57.509 131.452C31.8593 109.992 20.1223 90.3876 14.7713 77.7052C14.7404 77.663 14.7193 77.6145 14.7093 77.5632C13.3404 74.5552 12.291 71.4109 11.5783 68.1823V68.1202C11.4368 67.4901 11.3484 67.0818 11.3218 66.9398C11.2953 66.7978 11.3218 66.7978 11.3218 66.7091C10.4003 62.2273 10.1558 57.6319 10.5965 53.0771C11.2323 46.7177 13.1455 40.5534 16.2208 34.9564C19.296 29.3594 23.4696 24.4455 28.4895 20.5115C33.5094 16.5775 39.2716 13.7048 45.4284 12.0668C51.5852 10.4289 58.0089 10.0596 64.3119 10.9813C70.6148 11.9029 76.6663 14.0965 82.1012 17.4295C87.536 20.7625 92.2415 25.1658 95.9337 30.3738C99.6259 35.5818 102.228 41.4865 103.584 47.7314C104.939 53.9764 105.019 60.4321 103.82 66.7091H103.793Z" fill="#B0D3BF"/>
<path d="M57.5091 27.5792C53.488 27.5792 49.5062 28.3739 45.7912 29.918C42.0761 31.4621 38.7006 33.7253 35.8572 36.5784C33.0138 39.4315 30.7583 42.8187 29.2195 46.5464C27.6807 50.2742 26.8887 54.2696 26.8887 58.3045C26.8887 62.3394 27.6807 66.3347 29.2195 70.0625C30.7583 73.7903 33.0138 77.1774 35.8572 80.0305C38.7006 82.8836 42.0761 85.1468 45.7912 86.6909C49.5062 88.235 53.488 89.0297 57.5091 89.0297C58.2072 89.0587 58.9039 88.9457 59.5573 88.6976C60.2108 88.4495 60.8075 88.0714 61.3116 87.5861C61.8158 87.1007 62.2169 86.518 62.4909 85.8732C62.7649 85.2283 62.9062 84.5344 62.9062 83.8334C62.9062 83.1323 62.7649 82.4385 62.4909 81.7936C62.2169 81.1488 61.8158 80.5661 61.3116 80.0807C60.8075 79.5954 60.2108 79.2173 59.5573 78.9692C58.9039 78.7211 58.2072 78.6081 57.5091 78.6371C52.8813 78.6367 48.3927 77.0489 44.7878 74.137C41.1829 71.2252 38.6784 67.1642 37.6896 62.6278C36.7008 58.0915 37.2872 53.3522 39.3515 49.1962C41.4158 45.0401 44.834 41.7171 49.0391 39.7782C53.2442 37.8393 57.9835 37.4011 62.4709 38.5363C66.9583 39.6715 70.9241 42.3118 73.7105 46.0194C76.4969 49.7269 77.9365 54.2788 77.7905 58.9202C77.6445 63.5615 75.9217 68.0133 72.9078 71.5371C72.0152 72.5869 71.5748 73.9495 71.6834 75.3251C71.7921 76.7007 72.4409 77.9767 73.4871 78.8723C74.5333 79.7679 75.8912 80.2098 77.2622 80.1008C78.6331 79.9918 79.9047 79.3408 80.7973 78.291C84.6115 73.8279 87.0691 68.3602 87.8782 62.5371C88.6873 56.7141 87.8139 50.7804 85.3618 45.4406C82.9096 40.1009 78.9818 35.5795 74.0446 32.4134C69.1074 29.2473 63.3684 27.5695 57.5091 27.5792Z" fill="#B0D3BF"/>
</svg>
