
<svg width: "122", height: "23" viewBox: "0 0 122 23">
    <path pid="0" d="M13.415 12.913c-.095.057-.082.206.022.245.847.319 1.522.81 2.023 1.473.557.72.835 1.612.835 2.676 0 1.506-.59 2.668-1.768 3.486-1.162.802-2.864 1.203-5.106 1.203H1.257a.722.722 0 01-.722-.722V5.534c0-.399.323-.722.722-.722H8.93c2.095 0 3.699.4 4.812 1.203 1.129.802 1.694 1.89 1.694 3.265 0 .834-.205 1.579-.614 2.234a4.064 4.064 0 01-1.407 1.399zM4.629 7.807a.142.142 0 00-.142.142v3.766c0 .079.064.142.142.142h3.81c.982 0 1.727-.171 2.234-.515.508-.344.761-.851.761-1.522s-.253-1.17-.76-1.498c-.508-.343-1.253-.515-2.235-.515H4.63zM9.127 19c1.047 0 1.833-.172 2.356-.516.54-.343.81-.875.81-1.595 0-1.424-1.055-2.136-3.166-2.136H4.629a.142.142 0 00-.142.142v3.963c0 .078.064.142.142.142h4.498zM32.306 18.755c.399 0 .722.324.722.723v1.796a.722.722 0 01-.722.722H20.764a.722.722 0 01-.722-.722V19.73c0-.2.082-.389.226-.525l6.402-6.047c.704-.67 1.178-1.243 1.424-1.718.245-.491.368-.974.368-1.448 0-.688-.237-1.211-.712-1.571-.458-.377-1.137-.565-2.037-.565-.753 0-1.432.147-2.038.442a3.7 3.7 0 00-1.078.751c-.273.272-.698.361-1.022.153l-1.7-1.095c-.34-.219-.436-.677-.174-.985.616-.721 1.393-1.303 2.33-1.745 1.178-.573 2.528-.86 4.05-.86 1.277 0 2.39.213 3.339.639.965.409 1.71.998 2.233 1.767.54.753.81 1.645.81 2.676 0 .933-.196 1.808-.588 2.627-.393.818-1.154 1.75-2.284 2.798l-3.666 3.461a.156.156 0 00.107.27h6.274zM50.593 12.913c-.095.057-.082.206.022.245.848.319 1.522.81 2.024 1.473.556.72.834 1.612.834 2.676 0 1.506-.589 2.668-1.767 3.486-1.162.802-2.864 1.203-5.106 1.203h-8.165a.722.722 0 01-.722-.722V5.534c0-.399.323-.722.722-.722h7.674c2.095 0 3.698.4 4.811 1.203 1.13.802 1.694 1.89 1.694 3.265 0 .834-.204 1.579-.614 2.234a4.064 4.064 0 01-1.407 1.399zm-8.789-5.106a.139.139 0 00-.139.138v3.774c0 .076.063.138.14.138h3.813c.982 0 1.726-.171 2.234-.515.507-.344.76-.851.76-1.522s-.253-1.17-.76-1.498c-.508-.343-1.252-.515-2.234-.515h-3.814zM46.305 19c1.048 0 1.833-.172 2.357-.516.54-.343.81-.875.81-1.595 0-1.424-1.056-2.136-3.167-2.136h-4.5a.139.139 0 00-.14.139v3.97c0 .076.063.138.14.138h4.5zM56.214 9.51c0-.398.323-.721.722-.721h2.386c.398 0 .722.323.722.722v11.763a.722.722 0 01-.722.722h-2.386a.722.722 0 01-.722-.722V9.51zm1.915-4.728c-.704 0-1.277-.205-1.718-.614a1.99 1.99 0 01-.663-1.522c0-.606.22-1.113.663-1.522.441-.41 1.014-.614 1.718-.614s1.276.197 1.718.59c.442.392.663.883.663 1.472 0 .638-.22 1.17-.663 1.596-.442.409-1.014.614-1.718.614zM71.625 8.592c1.637 0 2.954.491 3.953 1.473 1.014.982 1.522 2.439 1.522 4.37v6.839a.722.722 0 01-.722.722h-2.386a.722.722 0 01-.722-.722v-6.25c0-1.047-.23-1.825-.687-2.332-.459-.524-1.121-.786-1.989-.786-.965 0-1.735.303-2.307.909-.573.589-.86 1.473-.86 2.651v5.808a.722.722 0 01-.722.722H64.32a.722.722 0 01-.722-.722V9.51c0-.399.323-.722.722-.722h2.504c.238 0 .432.193.432.432v.866c0 .088.109.131.171.07a5.01 5.01 0 011.719-1.098c.753-.311 1.58-.467 2.48-.467zM93.445 3.78c.399 0 .722.324.722.723v16.77a.722.722 0 01-.722.723h-2.532a.403.403 0 01-.403-.403v-.858c0-.088-.112-.13-.172-.065-.94 1.015-2.258 1.522-3.953 1.522-1.243 0-2.373-.278-3.387-.834a5.999 5.999 0 01-2.357-2.382c-.573-1.03-.86-2.225-.86-3.584 0-1.358.287-2.553.86-3.584a6 6 0 012.357-2.381c1.014-.556 2.144-.835 3.387-.835 1.62 0 2.9.491 3.84 1.473.04.043.113.014.113-.044V4.503c0-.399.323-.722.722-.722h2.385zm-6.397 15.27c.966 0 1.768-.327 2.406-.982.638-.67.957-1.563.957-2.676 0-1.113-.319-1.996-.957-2.65-.638-.672-1.44-1.007-2.406-1.007-.982 0-1.792.335-2.43 1.006-.638.655-.957 1.538-.957 2.651 0 1.113.319 2.005.957 2.676.638.655 1.448.982 2.43.982zM110.649 15.441c0 .028-.008.15-.024.365a.72.72 0 01-.719.666h-9.11c-.109 0-.19.101-.161.206.203.722.612 1.3 1.225 1.734.671.474 1.506.712 2.504.712.688 0 1.293-.098 1.817-.295a4.31 4.31 0 00.931-.509c.33-.236.792-.228 1.067.07l1.098 1.19c.249.271.258.691-.014.94-1.217 1.115-2.883 1.672-4.997 1.672-1.489 0-2.807-.286-3.952-.859-1.146-.59-2.03-1.4-2.651-2.43-.622-1.031-.933-2.201-.933-3.51 0-1.294.302-2.456.908-3.487a6.443 6.443 0 012.529-2.43c1.08-.59 2.283-.884 3.608-.884 1.293 0 2.463.279 3.511.835a5.99 5.99 0 012.454 2.406c.606 1.03.909 2.234.909 3.608zM103.8 11.49c-.868 0-1.596.246-2.185.736-.566.472-.921 1.11-1.064 1.914-.009.052.031.1.084.1h6.286a.1.1 0 00.099-.118c-.145-.78-.499-1.403-1.06-1.87-.589-.508-1.309-.762-2.16-.762zM116.856 10.25c0 .088.116.126.172.059a4.305 4.305 0 011.669-1.226 6.523 6.523 0 011.979-.461c.398-.034.722.294.722.692v2.034c0 .42-.358.743-.779.731h-.081c-1.096 0-1.955.31-2.577.932-.622.606-.933 1.522-.933 2.75v5.513a.722.722 0 01-.722.722h-2.386a.723.723 0 01-.722-.722V9.51c0-.399.324-.722.722-.722h2.512c.234 0 .424.19.424.424v1.037z" _fill="#27AE60"/>
</svg>