<svg width="112" height="21" viewBox="0 0 112 21" fill="none" xmlns="http://www.w3.org/2000/svg">
<path d="M11.9337 11.4979C11.914 11.51 11.8977 11.5268 11.8864 11.547C11.8751 11.5672 11.8692 11.5899 11.8692 11.613C11.8692 11.6361 11.8751 11.6588 11.8864 11.679C11.8977 11.6991 11.914 11.716 11.9337 11.7281C12.6779 11.9904 13.3298 12.4643 13.8097 13.092C14.3418 13.8087 14.6144 14.6857 14.5825 15.5785C14.6079 16.2131 14.4704 16.8437 14.1831 17.4098C13.8958 17.9758 13.4684 18.4585 12.9417 18.8116C11.8665 19.5525 10.2929 19.9342 8.20968 19.9342H0.666493C0.57803 19.9342 0.49045 19.9166 0.40886 19.8823C0.32727 19.848 0.253303 19.7978 0.191273 19.7346C0.129244 19.6714 0.080393 19.5964 0.0475697 19.5141C0.0147463 19.4318 -0.00139265 19.3437 9.41312e-05 19.255V4.66135C9.41312e-05 4.4842 0.0703038 4.31431 0.195278 4.18905C0.320252 4.06379 0.489753 3.99341 0.666493 3.99341H7.77848C9.71981 3.99341 11.2131 4.36761 12.2585 5.116C12.7552 5.44516 13.1602 5.89554 13.4355 6.42478C13.7108 6.95402 13.8472 7.54473 13.8321 8.14138C13.8483 8.87318 13.6538 9.59418 13.2721 10.2182C12.9397 10.7502 12.4795 11.1902 11.9337 11.4979ZM3.79129 6.7606C3.77389 6.76058 3.75667 6.7641 3.74067 6.77094C3.72467 6.77777 3.71021 6.78778 3.69817 6.80037C3.68614 6.81296 3.67677 6.82787 3.67064 6.84418C3.6645 6.8605 3.66173 6.87789 3.66249 6.89531V10.3866C3.66246 10.4213 3.67585 10.4548 3.69985 10.4799C3.72386 10.505 3.75662 10.5198 3.79129 10.5213H7.32488C8.04779 10.567 8.76821 10.3992 9.39688 10.0386C9.62292 9.88332 9.80476 9.67179 9.92455 9.42478C10.0443 9.17777 10.0979 8.90377 10.0801 8.62971C10.0966 8.35576 10.0399 8.08236 9.91583 7.83769C9.7918 7.59301 9.60494 7.38591 9.37448 7.2377C8.7451 6.87933 8.02481 6.71347 7.30248 6.7606H3.79129ZM7.96328 17.1502C8.72218 17.1995 9.47947 17.0321 10.1473 16.6675C10.3927 16.5113 10.5919 16.2919 10.7239 16.0322C10.8559 15.7725 10.9159 15.4821 10.8977 15.1913C10.8977 13.8666 9.91955 13.2043 7.96328 13.2043H3.79129C3.75662 13.2057 3.72386 13.2205 3.69985 13.2457C3.67585 13.2708 3.66246 13.3042 3.66249 13.339V17.0155C3.66246 17.0502 3.67585 17.0837 3.69985 17.1088C3.72386 17.1339 3.75662 17.1487 3.79129 17.1502H7.96328Z" fill="white"/>
<path d="M29.4391 16.92C29.5271 16.9192 29.6143 16.9359 29.6958 16.9692C29.7773 17.0024 29.8515 17.0515 29.9139 17.1136C29.9764 17.1757 30.026 17.2496 30.0598 17.331C30.0937 17.4124 30.1111 17.4997 30.1111 17.5879V19.2718C30.1111 19.4504 30.0403 19.6217 29.9143 19.7481C29.7882 19.8744 29.6173 19.9453 29.4391 19.9453H18.7431C18.5659 19.9439 18.3964 19.8722 18.2716 19.7461C18.1467 19.6199 18.0767 19.4495 18.0767 19.2718V17.8405C18.0774 17.7494 18.0961 17.6594 18.1316 17.5756C18.1672 17.4918 18.219 17.4158 18.2839 17.3522L24.2199 11.7392C24.7387 11.2798 25.1827 10.7419 25.5359 10.1451C25.7541 9.72934 25.8712 9.26776 25.8775 8.79802C25.8935 8.5168 25.8401 8.23596 25.7219 7.98041C25.6037 7.72487 25.4244 7.50251 25.1999 7.33303C24.649 6.9427 23.98 6.75621 23.3071 6.80542C22.655 6.79487 22.0092 6.93507 21.4199 7.21516C21.0498 7.38725 20.7124 7.62279 20.4231 7.91117C20.3047 8.03858 20.1469 8.12227 19.9752 8.14875C19.8035 8.17523 19.6279 8.14294 19.4767 8.0571L17.9199 7.04116C17.8444 6.99588 17.7796 6.93478 17.7299 6.86205C17.6802 6.78933 17.6467 6.70669 17.6319 6.6198C17.617 6.53291 17.621 6.44383 17.6436 6.35864C17.6663 6.27345 17.7071 6.19418 17.7631 6.12624C18.3582 5.43762 19.0933 4.88453 19.9191 4.5041C21.0932 3.95654 22.3763 3.68398 23.6711 3.70706C24.7339 3.68176 25.7898 3.88462 26.7679 4.30203C27.6033 4.63137 28.3225 5.20177 28.8343 5.94102C29.3446 6.66533 29.6078 7.53552 29.5847 8.42194C29.586 9.26615 29.3945 10.0995 29.0247 10.858C28.4819 11.8455 27.7647 12.7261 26.9079 13.4568L23.5199 16.6674C23.4988 16.6871 23.484 16.7127 23.4775 16.7409C23.4709 16.7691 23.4728 16.7986 23.483 16.8257C23.4932 16.8527 23.5112 16.8761 23.5348 16.8929C23.5583 16.9097 23.5862 16.9191 23.6151 16.92H29.4391Z" fill="white"/>
<path d="M46.3848 11.4978C46.3651 11.5099 46.3488 11.5267 46.3375 11.5469C46.3262 11.5671 46.3202 11.5898 46.3202 11.6129C46.3202 11.636 46.3262 11.6587 46.3375 11.6789C46.3488 11.699 46.3651 11.7159 46.3848 11.728C47.129 11.9903 47.7809 12.4642 48.2607 13.0919C48.7929 13.8086 49.0655 14.6856 49.0335 15.5784C49.0601 16.2126 48.9237 16.843 48.6374 17.4091C48.3511 17.9753 47.9244 18.4582 47.3984 18.8115C46.3176 19.5524 44.744 19.9341 42.6664 19.9341H35.1232C34.9449 19.9341 34.774 19.8631 34.648 19.7368C34.522 19.6105 34.4512 19.4392 34.4512 19.2605V4.66687C34.4512 4.57868 34.4686 4.49136 34.5024 4.40995C34.5363 4.32855 34.5859 4.25466 34.6483 4.19256C34.7108 4.13047 34.7849 4.08138 34.8664 4.04815C34.9479 4.01491 35.0352 3.99818 35.1232 3.99892H42.2296C44.1728 3.99892 45.6568 4.36938 46.7096 5.12152C47.2049 5.45172 47.6085 5.90246 47.8827 6.43156C48.157 6.96067 48.2928 7.55085 48.2775 8.1469C48.2937 8.8787 48.0993 9.59969 47.7176 10.2237C47.386 10.753 46.9279 11.1909 46.3848 11.4978ZM38.2424 6.7605C38.2082 6.7605 38.1754 6.7741 38.1513 6.79831C38.1271 6.82252 38.1136 6.85535 38.1136 6.88959V10.3921C38.1136 10.4263 38.1271 10.4592 38.1513 10.4834C38.1754 10.5076 38.2082 10.5212 38.2424 10.5212H41.776C42.4989 10.5676 43.2195 10.3997 43.848 10.0385C44.0781 9.88589 44.2644 9.67553 44.3882 9.42834C44.512 9.18115 44.569 8.90577 44.5536 8.62961C44.57 8.35566 44.5133 8.08226 44.3893 7.83758C44.2653 7.59291 44.0784 7.3858 43.848 7.2376C43.2188 6.87861 42.4983 6.7127 41.776 6.7605H38.2424ZM42.4144 17.1501C43.1733 17.1994 43.9306 17.032 44.5984 16.6674C44.8459 16.5126 45.0473 16.2938 45.1813 16.034C45.3153 15.7743 45.377 15.4831 45.36 15.1912C45.36 13.8665 44.3818 13.2042 42.4256 13.2042H38.2424C38.2082 13.2042 38.1754 13.2178 38.1513 13.242C38.1271 13.2662 38.1136 13.299 38.1136 13.3333V17.0154C38.1128 17.0328 38.1156 17.0502 38.1217 17.0665C38.1278 17.0828 38.1372 17.0977 38.1493 17.1103C38.1613 17.1229 38.1757 17.1329 38.1917 17.1397C38.2077 17.1466 38.225 17.1501 38.2424 17.1501H42.4144Z" fill="white"/>
<path d="M51.5987 8.32092C51.598 8.23273 51.6147 8.14527 51.6479 8.06358C51.681 7.9819 51.73 7.9076 51.7919 7.84498C51.8539 7.78236 51.9276 7.73265 52.0088 7.69874C52.09 7.66482 52.1772 7.64736 52.2651 7.64736H54.5051C54.5931 7.64736 54.6802 7.66482 54.7615 7.69874C54.8427 7.73265 54.9164 7.78236 54.9783 7.84498C55.0403 7.9076 55.0893 7.9819 55.1224 8.06358C55.1556 8.14527 55.1723 8.23273 55.1715 8.32092V19.2325C55.1723 19.3207 55.1556 19.4082 55.1224 19.4898C55.0893 19.5715 55.0403 19.6458 54.9783 19.7084C54.9164 19.7711 54.8427 19.8208 54.7615 19.8547C54.6802 19.8886 54.5931 19.9061 54.5051 19.9061H52.2651C52.1772 19.9061 52.09 19.8886 52.0088 19.8547C51.9276 19.8208 51.8539 19.7711 51.7919 19.7084C51.73 19.6458 51.681 19.5715 51.6479 19.4898C51.6147 19.4082 51.598 19.3207 51.5987 19.2325V8.32092ZM53.3683 3.93158C52.7855 3.95924 52.2149 3.75786 51.7779 3.37029C51.5875 3.18982 51.4357 2.97229 51.332 2.73101C51.2283 2.48973 51.1748 2.22977 51.1748 1.96705C51.1748 1.70433 51.2283 1.44438 51.332 1.2031C51.4357 0.961814 51.5875 0.744275 51.7779 0.56381C52.2149 0.176235 52.7855 -0.0251454 53.3683 0.00251481C53.952 -0.0196338 54.5224 0.180956 54.9643 0.56381C55.1616 0.732247 55.3192 0.942447 55.4258 1.17927C55.5323 1.41609 55.5851 1.67364 55.5803 1.93337C55.5861 2.20973 55.5344 2.48426 55.4283 2.73941C55.3222 2.99457 55.1642 3.22473 54.9643 3.41519C54.5211 3.79346 53.9496 3.9864 53.3683 3.95404V3.93158Z" fill="white"/>
<path d="M65.8786 7.49019C66.5491 7.45954 67.2189 7.5645 67.8481 7.79883C68.4774 8.03316 69.0531 8.39206 69.5409 8.85413C70.4817 9.77092 70.9521 11.1236 70.9521 12.9123V19.2549C70.9521 19.4336 70.8813 19.6049 70.7553 19.7312C70.6293 19.8575 70.4584 19.9285 70.2801 19.9285H68.0401C67.9522 19.9285 67.865 19.911 67.7838 19.8771C67.7026 19.8432 67.6289 19.7935 67.5669 19.7309C67.505 19.6683 67.456 19.594 67.4229 19.5123C67.3897 19.4306 67.373 19.3431 67.3737 19.2549V13.4568C67.4364 12.6819 67.2088 11.9115 66.7354 11.2958C66.5016 11.0446 66.2149 10.8489 65.8963 10.7226C65.5776 10.5964 65.2348 10.5429 64.893 10.5661C64.4973 10.5468 64.102 10.6118 63.7332 10.7569C63.3644 10.9021 63.0306 11.124 62.7538 11.408C62.1768 12.091 61.8912 12.9741 61.9586 13.8665V19.2549C61.9593 19.3431 61.9426 19.4306 61.9094 19.5123C61.8763 19.594 61.8273 19.6683 61.7654 19.7309C61.7034 19.7935 61.6297 19.8432 61.5485 19.8771C61.4673 19.911 61.3801 19.9285 61.2922 19.9285H59.0522C58.9642 19.9285 58.8771 19.911 58.7958 19.8771C58.7146 19.8432 58.6409 19.7935 58.579 19.7309C58.517 19.6683 58.468 19.594 58.4349 19.5123C58.4017 19.4306 58.385 19.3431 58.3858 19.2549V8.32091C58.385 8.23272 58.4017 8.14526 58.4349 8.06357C58.468 7.98188 58.517 7.90759 58.579 7.84497C58.6409 7.78235 58.7146 7.73264 58.7958 7.69872C58.8771 7.66481 58.9642 7.64735 59.0522 7.64735H61.3706C61.4775 7.64735 61.58 7.68993 61.6557 7.76572C61.7313 7.84151 61.7738 7.9443 61.7738 8.05149V8.8822C61.7733 8.90064 61.7785 8.91879 61.7886 8.93417C61.7988 8.94955 61.8134 8.96142 61.8306 8.96817C61.8477 8.97491 61.8665 8.97621 61.8844 8.97187C61.9023 8.96754 61.9184 8.95779 61.9306 8.94394C62.3882 8.50015 62.9312 8.15447 63.5266 7.928C64.2732 7.62494 65.0732 7.47603 65.8786 7.49019Z" fill="white"/>
<path d="M86.094 3.02786C86.182 3.02711 86.2692 3.04384 86.3507 3.07708C86.4322 3.11031 86.5064 3.1594 86.5688 3.22149C86.6313 3.28359 86.6809 3.35748 86.7147 3.43888C86.7486 3.52029 86.766 3.6076 86.766 3.69579V19.2549C86.766 19.4335 86.6952 19.6049 86.5692 19.7312C86.4432 19.8575 86.2722 19.9285 86.094 19.9285H83.7476C83.6491 19.927 83.5551 19.8867 83.4859 19.8163C83.4168 19.746 83.378 19.6512 83.378 19.5524V18.7553C83.3769 18.737 83.3705 18.7193 83.3597 18.7045C83.3488 18.6897 83.3339 18.6783 83.3167 18.6718C83.2996 18.6653 83.2809 18.6639 83.263 18.6677C83.245 18.6716 83.2286 18.6806 83.2156 18.6936C82.7417 19.1783 82.1694 19.5554 81.5376 19.7994C80.9058 20.0434 80.2291 20.1487 79.5532 20.1081C78.4591 20.1223 77.3795 19.8557 76.4172 19.3335C75.4932 18.8208 74.7352 18.0533 74.2332 17.122C73.7083 16.0933 73.4346 14.9545 73.4346 13.7991C73.4346 12.6437 73.7083 11.5049 74.2332 10.4762C74.7352 9.54489 75.4932 8.77738 76.4172 8.26473C77.3795 7.74256 78.4591 7.47591 79.5532 7.49015C80.2081 7.45584 80.8629 7.55948 81.4754 7.7944C82.0879 8.02933 82.6445 8.39032 83.1092 8.8541C83.1175 8.86292 83.1282 8.86911 83.1399 8.87189C83.1517 8.87467 83.164 8.87392 83.1754 8.86974C83.1867 8.86555 83.1966 8.85811 83.2037 8.84834C83.2109 8.83857 83.215 8.82691 83.2156 8.81481V3.69579C83.2156 3.6076 83.233 3.52029 83.2669 3.43888C83.3007 3.35748 83.3503 3.28359 83.4128 3.22149C83.4752 3.1594 83.5494 3.11031 83.6309 3.07708C83.7124 3.04384 83.7996 3.02711 83.8876 3.02786H86.094ZM80.1692 17.1949C80.5858 17.209 81.0006 17.1347 81.3866 16.9771C81.7726 16.8194 82.1211 16.5819 82.4092 16.28C82.7123 15.9452 82.9465 15.5537 83.0983 15.128C83.2502 14.7022 83.3167 14.2507 83.294 13.7991C83.3174 13.3509 83.2512 12.9025 83.0992 12.4803C82.9473 12.0581 82.7127 11.6707 82.4092 11.3406C82.1161 11.044 81.7672 10.8085 81.3827 10.6478C80.9982 10.4871 80.5858 10.4044 80.1692 10.4044C79.7526 10.4044 79.3402 10.4871 78.9557 10.6478C78.5712 10.8085 78.2224 11.044 77.9292 11.3406C77.6247 11.6702 77.3891 12.0575 77.2362 12.4797C77.0833 12.9019 77.0162 13.3505 77.0388 13.7991C77.0172 14.251 77.0847 14.7027 77.2375 15.1284C77.3903 15.5542 77.6254 15.9455 77.9292 16.28C78.2184 16.5805 78.5671 16.8171 78.9528 16.9746C79.3385 17.1322 79.7529 17.2072 80.1692 17.1949Z" fill="white"/>
<path d="M102.037 13.844C102.037 13.844 102.037 13.9843 102.037 14.1808C102.026 14.3495 101.951 14.5075 101.827 14.6223C101.703 14.7371 101.54 14.8 101.371 14.7982H92.9094C92.8858 14.7974 92.8623 14.8021 92.8408 14.8121C92.8193 14.822 92.8005 14.8369 92.7858 14.8554C92.7711 14.874 92.7609 14.8957 92.7561 14.9189C92.7513 14.9421 92.752 14.9662 92.7582 14.989C92.9308 15.6414 93.3274 16.2118 93.8782 16.6C94.5624 17.0593 95.3736 17.2911 96.1966 17.2623C96.7684 17.2705 97.3371 17.1774 97.8766 16.9872C98.1826 16.867 98.4724 16.7085 98.739 16.5158C98.8838 16.4044 99.0639 16.3493 99.2461 16.3606C99.4283 16.372 99.6002 16.449 99.7302 16.5775L100.744 17.7001C100.801 17.7575 100.847 17.8257 100.878 17.9008C100.909 17.976 100.925 18.0565 100.925 18.1379C100.925 18.2193 100.909 18.2998 100.878 18.375C100.847 18.4501 100.801 18.5183 100.744 18.5757C99.6238 19.6085 98.0801 20.1249 96.1126 20.1249C94.8463 20.1505 93.5918 19.8775 92.4502 19.3278C91.4345 18.8288 90.5818 18.05 89.9918 17.0827C89.4338 16.0928 89.1406 14.9753 89.1406 13.8384C89.1406 12.7015 89.4338 11.5839 89.9918 10.5941C90.5535 9.64406 91.3653 8.8673 92.3382 8.34891C93.3556 7.81829 94.4843 7.53752 95.6312 7.52971C96.7781 7.5219 97.9104 7.78729 98.935 8.30401C99.8958 8.81311 100.686 9.59379 101.209 10.5492C101.772 11.5541 102.058 12.6914 102.037 13.844ZM95.6926 10.1787C94.9575 10.1543 94.2381 10.3953 93.6654 10.8579C93.1341 11.313 92.7842 11.9446 92.6798 12.6372C92.6782 12.6484 92.679 12.6599 92.6822 12.6707C92.6854 12.6816 92.6909 12.6917 92.6984 12.7002C92.7058 12.7087 92.715 12.7155 92.7254 12.7202C92.7357 12.7248 92.7469 12.7271 92.7582 12.727H98.5598C98.5736 12.7281 98.5874 12.726 98.6003 12.7209C98.6131 12.7158 98.6246 12.7077 98.6338 12.6974C98.643 12.6871 98.6497 12.6747 98.6534 12.6614C98.6571 12.648 98.6576 12.634 98.655 12.6204C98.5457 11.9421 98.1957 11.3262 97.6694 10.886C97.1194 10.4149 96.4158 10.1632 95.6926 10.1787Z" fill="white"/>
<path d="M107.788 9.0281C107.79 9.04599 107.797 9.06294 107.809 9.07699C107.82 9.09103 107.835 9.1016 107.852 9.10747C107.869 9.11334 107.887 9.11428 107.905 9.11017C107.922 9.10606 107.938 9.09706 107.951 9.08424C108.367 8.5898 108.898 8.2045 109.496 7.96164C110.081 7.72474 110.699 7.58081 111.328 7.53506C111.415 7.5288 111.502 7.54079 111.584 7.57028C111.666 7.59977 111.741 7.6461 111.804 7.70632C111.868 7.76654 111.918 7.83932 111.951 7.92001C111.985 8.0007 112.001 8.08753 112 8.17494V10.0609C111.998 10.1535 111.978 10.2449 111.941 10.3296C111.903 10.4143 111.849 10.4907 111.782 10.554C111.715 10.6174 111.635 10.6665 111.549 10.6985C111.462 10.7304 111.369 10.7446 111.277 10.7401H111.204C110.768 10.7143 110.331 10.7776 109.92 10.9262C109.509 11.0748 109.133 11.3055 108.813 11.6045C108.504 11.9491 108.268 12.3533 108.12 12.7924C107.971 13.2315 107.914 13.6963 107.951 14.1583V19.2717C107.951 19.4504 107.88 19.6217 107.754 19.748C107.628 19.8743 107.457 19.9453 107.279 19.9453H105.072C104.894 19.9453 104.723 19.8743 104.597 19.748C104.471 19.6217 104.4 19.4504 104.4 19.2717V8.32087C104.4 8.14224 104.471 7.97092 104.597 7.8446C104.723 7.71828 104.894 7.64732 105.072 7.64732H107.396C107.5 7.64732 107.6 7.68871 107.674 7.7624C107.747 7.83608 107.788 7.93602 107.788 8.04023V9.0281Z" fill="white"/>
</svg>
